<?xml version="1.0" encoding="utf-8"?>
<!-- Generator: Adobe Illustrator 24.2.0, SVG Export Plug-In . SVG Version: 6.00 Build 0)  -->
<svg version="1.1" id="Instagram" xmlns="http://www.w3.org/2000/svg" xmlns:xlink="http://www.w3.org/1999/xlink" x="0px" y="0px"
	 viewBox="0 0 100 100" style="enable-background:new 0 0 100 100;" xml:space="preserve">
<style type="text/css">
	.st0{fill:#FFFFFF;}
</style>
<g>
	<path class="st0" d="M50,0C22.4,0,0,22.4,0,50s22.4,50,50,50s50-22.4,50-50S77.6,0,50,0z M78.1,65.2c0,3.8-0.7,6.7-2.7,9
		c-1.8,2-4.2,3.7-7.6,4c-5.6,0.4-11.6,0-17.6,0c-5.7,0-11.8,0.4-17.6,0c-5.7-0.4-10.1-4.6-10.5-10.5c-0.6-7.8,0.4-17,0-25.4
		c0-0.2,0.1-0.4,0.3-0.4c5.3,0,10.5,0,15.8,0c0.5,0.3-0.4,1-0.7,1.5c-1.1,2-1.9,5-1.6,8.3c0.4,6.6,6,12.3,13.1,12.8
		c5.2,0.4,9.4-2.1,12-5.3c2.4-2.9,4.4-8,2.6-13.4c-0.2-0.7-0.6-1.4-1-2c-0.3-0.6-0.8-1.2-0.8-1.9c5.4,0,10.7,0,16.1,0
		C78.2,50.1,78.1,57.6,78.1,65.2z M39,50.5c-0.1-3.6,1.6-6.5,3.3-8.2s3.8-2.8,7.1-3c6.1-0.4,11.1,3.9,11.7,9.5
		c0.6,6.2-3.7,11.7-9.3,12.4c-1,0.1-2.4,0.1-3.4,0C43.5,60.7,39.1,56.2,39,50.5z M36.8,21.9c9.4,0.5,21.5-0.6,30.7,0
		c3.6,0.2,6.6,2,8.3,4.2c2.5,3.2,2.4,7.9,2.3,14.2c-4.5,0-8.6,0-13.2,0c-1.4,0-3.1,0.3-4.4,0c-0.8-0.2-1.2-1-1.9-1.5
		c-2.2-1.6-5.6-3-9.8-2.7c-3.1,0.2-5.2,1.3-7.2,2.9c-0.5,0.4-1.3,1.2-1.9,1.4c-1.2,0.3-3,0-4.5,0c-4.3,0-8.5,0-13.1,0
		c0.2-3.3-0.4-6.5,0.1-9.3c0.6-3.3,2.6-5.6,4.6-7c0,3.9,0,11.7,0,11.7H29c0,0-0.2-9,0.1-13.1c0.3-0.3,1-0.2,1.4-0.5
		c0.3,4.2,0.3,13.6,0.3,13.6H33c0,0,0-9,0-13.5c0-0.2,0-0.4,0.1-0.4c0.5,0,0.9,0,1.4,0c0,4.6,0,13.9,0,13.9h2.3"/>
</g>
</svg>
