<svg xmlns="http://www.w3.org/2000/svg" viewBox="0 0 256.13 181.42"><defs><style>.cls-1{fill:none;stroke:#fff;stroke-miterlimit:10;stroke-width:8px;}.cls-2{fill:#fff;}</style></defs><g id="Livello_2" data-name="Livello 2"><g id="Livello_3" data-name="Livello 3"><rect class="cls-1" x="4" y="4" width="248.13" height="173.42" rx="33.29"/><path class="cls-2" d="M14.14,13.38c10,5.71,19.77,11.72,29.57,17.72l14.61,9.12c4.88,3,9.68,6.17,14.53,9.25C82.55,55.61,92.09,62,101.7,68.25S120.8,81,130.31,87.4h-4.47l14.34-9.56,14.4-9.46c9.63-6.27,19.26-12.53,29-18.63,4.87-3.06,9.7-6.16,14.59-9.18l14.68-9c9.85-5.94,19.69-11.9,29.73-17.56-9.05,7.14-18.3,14-27.54,20.83L201.1,44.92c-4.65,3.38-9.36,6.67-14,10-9.35,6.68-18.8,13.22-28.25,19.74L144.58,84.4,130.29,94l-2.24,1.51L125.82,94c-9.48-6.46-18.95-12.94-28.36-19.52S78.64,61.37,69.35,54.62C64.7,51.25,60,48,55.39,44.54L41.52,34.33C32.33,27.43,23.13,20.55,14.14,13.38Z"/></g></g></svg>